<svg xmlns="http://www.w3.org/2000/svg" xmlns:xlink="http://www.w3.org/1999/xlink" width="1080" zoomAndPan="magnify" viewBox="0 0 810 809.999993" height="1080" preserveAspectRatio="xMidYMid meet" version="1.0"><path fill="#5f774f" d="M 184.113281 740.714844 C 202.265625 730.644531 231.925781 720.449219 264.542969 679.722656 C 257.515625 670.667969 251.332031 661.046875 245.894531 651.015625 C 238.488281 637.355469 232.460938 622.929688 227.632812 608.09375 C 223.003906 593.863281 219.460938 579.328125 216.652344 564.632812 C 213.878906 550.109375 210.480469 533.136719 212.777344 518.34375 C 212.832031 517.980469 213.332031 517.894531 213.488281 518.238281 C 219.304688 530.933594 221.21875 546.351562 224.242188 559.90625 C 227.582031 574.890625 231.542969 589.753906 236.570312 604.261719 C 241.304688 617.925781 247.0625 631.234375 253.984375 643.890625 C 259.105469 653.265625 264.878906 662.269531 271.359375 670.792969 C 300.398438 630.839844 315.671875 562.480469 329.308594 514.589844 C 318.097656 504.125 308.492188 492.605469 299.644531 480.464844 C 290.886719 468.449219 282.863281 455.835938 274.761719 443.03125 C 266.703125 430.292969 258.863281 417.40625 251.566406 404.214844 C 244.433594 391.308594 235.132812 375.835938 233.65625 360.910156 C 233.625 360.609375 233.988281 360.453125 234.1875 360.683594 C 243.308594 371.273438 249.171875 385.730469 256.203125 397.75 C 264.183594 411.382812 272.671875 424.6875 281.46875 437.808594 C 288.78125 448.710938 296.058594 459.667969 303.78125 470.265625 C 312.492188 482.214844 321.785156 493.6875 332.34375 504.09375 C 341.785156 471.777344 352 439.710938 363.53125 408.15625 C 360.101562 401.425781 356.957031 394.53125 354.023438 387.523438 C 346.417969 369.347656 340.164062 350.476562 333.855469 331.996094 C 329.46875 319.152344 325.617188 306.199219 322.523438 292.980469 C 319.546875 280.246094 315.320312 265.546875 317.703125 252.476562 C 317.820312 251.832031 318.695312 251.65625 318.984375 252.289062 C 324.246094 263.878906 325.601562 277.472656 329.050781 289.730469 C 332.941406 303.574219 337.59375 317.25 342.332031 330.824219 C 348.246094 347.753906 354.074219 365.007812 360.996094 381.71875 C 363.117188 386.839844 365.351562 391.902344 367.714844 396.894531 C 379.203125 366.421875 391.988281 336.46875 406.554688 307.273438 C 405.578125 286.367188 399.09375 266.421875 395.015625 246.0625 C 393.261719 237.296875 391.945312 228.460938 391.738281 219.429688 C 390.898438 182.703125 392.640625 143.808594 406 109.222656 C 406.175781 108.761719 406.804688 109.050781 406.691406 109.5 C 401.769531 128.527344 399.960938 148.03125 399.152344 167.621094 C 398.371094 186.539062 397.183594 206.046875 398.761719 224.941406 C 399.246094 230.789062 400.320312 236.621094 401.675781 242.453125 C 405.621094 259.429688 411.996094 276.375 413.605469 293.464844 C 422.101562 277.230469 431.179688 261.246094 440.929688 245.558594 C 449.566406 231.671875 458.980469 217.65625 469.246094 204.164062 C 470.230469 200.65625 471.886719 197.191406 472.976562 193.878906 C 475.085938 187.449219 476.722656 180.972656 477.796875 174.289062 C 478.835938 167.839844 479.542969 161.316406 480.09375 154.777344 C 480.601562 148.6875 480.976562 142.582031 481.335938 136.511719 C 482.808594 111.832031 483.15625 86.5 493.960938 63.773438 C 494.027344 63.632812 494.289062 63.671875 494.246094 63.84375 C 487.84375 89.472656 488.589844 115.8125 488.566406 142 C 488.5625 146.234375 488.488281 150.457031 488.308594 154.664062 C 487.949219 163.050781 487.152344 171.386719 485.515625 179.6875 C 485.171875 181.441406 484.792969 183.414062 484.359375 185.496094 C 497.085938 170.78125 511.015625 157.199219 526.308594 145.746094 C 531.753906 141.667969 537.359375 137.835938 543.160156 134.34375 C 543.425781 134.183594 543.679688 134.15625 543.914062 134.1875 C 548.863281 130.945312 553.863281 127.785156 558.980469 124.816406 C 566.046875 120.722656 573.277344 116.929688 580.585938 113.289062 C 584.382812 111.398438 588.136719 109.675781 592.125 108.230469 C 596.476562 106.648438 601.882812 105.519531 605.792969 103.039062 C 606.203125 102.78125 606.527344 103.441406 606.113281 103.582031 C 602.148438 104.902344 598.394531 107.933594 594.855469 110.136719 C 591.527344 112.207031 588.257812 114.160156 584.773438 115.957031 C 577.5 119.699219 570.308594 123.59375 563.242188 127.714844 C 556.203125 131.824219 549.246094 136.164062 542.707031 141.039062 C 539.1875 143.660156 535.613281 146.0625 532 148.398438 C 531.050781 149.347656 530.113281 150.304688 529.171875 151.253906 C 517.660156 162.816406 506.339844 174.503906 495.714844 187.003906 C 483.980469 200.804688 473.199219 215.390625 463.246094 230.523438 C 465.136719 230.519531 467.027344 230.554688 468.816406 230.449219 C 471.695312 230.277344 474.5625 230.03125 477.433594 229.761719 C 479.164062 229.597656 480.894531 229.433594 482.621094 229.25 C 491.5625 228.308594 500.453125 226.996094 509.292969 225.363281 C 517.898438 223.773438 526.523438 222.777344 535.09375 220.90625 C 544.1875 218.921875 553.226562 217.363281 562.355469 215.648438 C 562.601562 215.601562 562.71875 215.992188 562.476562 216.074219 C 554.03125 218.90625 545.859375 221.824219 537.226562 224.128906 C 527.964844 226.601562 518.789062 229.636719 509.378906 231.484375 C 500.304688 233.265625 491.148438 234.8125 481.945312 235.742188 C 481.769531 235.761719 481.59375 235.769531 481.414062 235.789062 C 476.992188 236.222656 472.550781 236.523438 468.109375 236.699219 C 465.179688 236.820312 462.09375 237.121094 459.113281 236.910156 C 457.878906 238.851562 456.648438 240.792969 455.441406 242.75 C 432.753906 279.523438 414.628906 318.894531 399.457031 359.304688 C 402.625 359.851562 405.863281 360.832031 408.816406 361.046875 C 410.8125 361.191406 412.816406 361.21875 414.816406 361.191406 C 419.648438 361.125 424.476562 360.632812 429.246094 359.890625 C 442.269531 357.871094 455.058594 354.308594 467.339844 349.550781 C 492.699219 339.734375 514.582031 323.9375 538.273438 310.898438 C 538.65625 310.6875 538.96875 311.273438 538.652344 311.53125 C 516.519531 329.457031 493.222656 347.144531 466.527344 357.699219 C 454.011719 362.644531 440.863281 366.519531 427.5625 368.636719 C 424.578125 369.113281 421.574219 369.460938 418.558594 369.6875 C 414.988281 369.960938 411.402344 370.054688 407.824219 369.898438 C 404.429688 369.75 399.859375 369.683594 396.0625 368.492188 C 395.691406 369.523438 395.308594 370.546875 394.9375 371.578125 C 380.34375 412.210938 368.222656 453.679688 356.34375 495.1875 C 359.933594 495.617188 363.554688 496.371094 366.539062 496.507812 C 374.261719 496.863281 381.902344 496.335938 389.5625 495.40625 C 395.910156 494.632812 402.125 493.515625 408.242188 492.039062 C 417.238281 489.867188 426.003906 486.902344 434.5625 482.9375 C 467.367188 467.746094 492.929688 440.875 524.480469 423.71875 C 524.738281 423.582031 525.039062 423.960938 524.835938 424.175781 C 511.511719 438.261719 495.523438 449.65625 480.707031 462.121094 C 466.671875 473.925781 451.921875 484.917969 435.269531 492.757812 C 428.207031 496.082031 420.757812 499.070312 413.125 501.464844 C 405.234375 503.945312 397.148438 505.785156 389.09375 506.679688 C 381.230469 507.550781 373.234375 507.746094 365.335938 507.28125 C 361.800781 507.074219 357.308594 507.027344 353.1875 506.214844 C 351.792969 511.109375 350.394531 516.003906 348.996094 520.894531 C 339.515625 554.027344 330.625 588.046875 318.929688 620.820312 C 322.351562 621.277344 325.777344 621.808594 329.203125 622.050781 C 335.167969 622.46875 341.066406 622.390625 346.941406 621.621094 C 348.742188 621.382812 350.539062 621.085938 352.335938 620.714844 C 366.980469 617.664062 381.394531 612.523438 395.152344 606.707031 C 421.882812 595.402344 447.175781 581.261719 470.527344 563.972656 C 470.722656 563.828125 471.027344 564.09375 470.84375 564.285156 C 449.992188 585.699219 425.167969 603.34375 397.675781 615.269531 C 383.578125 621.382812 368.761719 626.738281 353.734375 630.050781 C 352.265625 630.375 350.746094 630.65625 349.203125 630.917969 C 338.46875 632.71875 326.15625 632.910156 315.234375 630.882812 C 310.570312 643.199219 305.457031 655.308594 299.695312 667.085938 C 288.601562 689.769531 274.738281 711.074219 256.945312 729.074219 C 241.328125 744.882812 222.152344 759.75 200.253906 765.167969 C 194.171875 766.675781 179.414062 743.320312 184.113281 740.714844 Z M 184.113281 740.714844 " fill-opacity="1" fill-rule="nonzero"/><path fill="#7d9b6e" d="M 529.171875 151.253906 C 530.117188 150.304688 531.050781 149.347656 532 148.402344 C 535.613281 146.0625 539.1875 143.664062 542.707031 141.039062 C 549.246094 136.167969 556.203125 131.828125 563.242188 127.71875 C 570.308594 123.59375 577.503906 119.699219 584.773438 115.957031 C 588.257812 114.164062 591.527344 112.210938 594.855469 110.140625 C 598.394531 107.9375 602.152344 104.902344 606.113281 103.582031 C 606.53125 103.445312 606.203125 102.78125 605.792969 103.039062 C 601.882812 105.523438 596.476562 106.652344 592.125 108.230469 C 588.136719 109.679688 584.382812 111.402344 580.585938 113.292969 C 573.277344 116.933594 566.046875 120.726562 558.984375 124.820312 C 553.863281 127.785156 548.863281 130.949219 543.917969 134.1875 C 543.683594 134.160156 543.425781 134.1875 543.160156 134.347656 C 537.359375 137.835938 531.757812 141.667969 526.308594 145.746094 C 526.515625 128.546875 547.214844 104.339844 559.164062 97.746094 C 580.902344 85.746094 619.488281 91.449219 627.054688 96.617188 C 615.777344 109.066406 608.832031 126.171875 596.285156 137.46875 C 576.195312 155.558594 554.003906 154.726562 529.171875 151.253906 Z M 529.171875 151.253906 " fill-opacity="1" fill-rule="nonzero"/><path fill="#7d9b6e" d="M 316.863281 231.113281 C 330.324219 250.886719 351.675781 266.207031 363.121094 287.347656 C 380.867188 320.128906 373.390625 349.714844 360.996094 381.71875 C 354.074219 365.011719 348.246094 347.753906 342.332031 330.824219 C 337.59375 317.253906 332.941406 303.574219 329.050781 289.730469 C 325.601562 277.472656 324.246094 263.878906 318.984375 252.289062 C 318.695312 251.65625 317.820312 251.832031 317.703125 252.476562 C 315.320312 265.550781 319.546875 280.25 322.523438 292.980469 C 325.617188 306.199219 329.46875 319.152344 333.855469 331.996094 C 340.164062 350.476562 346.417969 369.347656 354.023438 387.523438 C 329.621094 383.878906 301.082031 344.9375 295.742188 325.453125 C 286.398438 291.355469 307.183594 239.859375 316.863281 231.113281 Z M 316.863281 231.113281 " fill-opacity="1" fill-rule="nonzero"/><path fill="#7d9b6e" d="M 226.886719 433.730469 C 209.925781 402.710938 218.265625 347.804688 225.671875 337.0625 C 243.332031 353.195312 267.640625 363.179688 283.65625 381.105469 C 307.714844 408.046875 308.039062 437.527344 303.785156 470.265625 C 296.058594 459.667969 288.78125 448.710938 281.472656 437.808594 C 272.671875 424.6875 264.183594 411.386719 256.203125 397.75 C 249.171875 385.730469 243.308594 371.273438 234.1875 360.683594 C 233.988281 360.453125 233.628906 360.609375 233.65625 360.910156 C 235.132812 375.835938 244.433594 391.308594 251.570312 404.214844 C 258.863281 417.40625 266.707031 430.292969 274.761719 443.03125 C 282.863281 455.835938 290.890625 468.449219 299.644531 480.464844 C 275.089844 484.25 236.808594 451.878906 226.886719 433.730469 Z M 226.886719 433.730469 " fill-opacity="1" fill-rule="nonzero"/><path fill="#7d9b6e" d="M 212.320312 493.941406 C 225.375 513.984375 246.410156 529.742188 257.417969 551.113281 C 274.214844 583.71875 266.65625 612.726562 253.984375 643.890625 C 247.0625 631.234375 241.308594 617.925781 236.570312 604.261719 C 231.542969 589.753906 227.582031 574.890625 224.242188 559.90625 C 221.21875 546.351562 219.304688 530.933594 213.488281 518.238281 C 213.332031 517.894531 212.832031 517.980469 212.777344 518.34375 C 210.480469 533.136719 213.878906 550.109375 216.652344 564.632812 C 219.457031 579.328125 223.003906 593.863281 227.632812 608.09375 C 232.460938 622.929688 238.488281 637.355469 245.894531 651.015625 C 221.664062 646.53125 194.1875 607.316406 189.273438 587.828125 C 180.628906 553.546875 202.460938 502.488281 212.320312 493.941406 Z M 212.320312 493.941406 " fill-opacity="1" fill-rule="nonzero"/><path fill="#7d9b6e" d="M 398.761719 224.941406 C 397.1875 206.050781 398.371094 186.542969 399.152344 167.621094 C 399.960938 148.03125 401.769531 128.53125 406.691406 109.5 C 406.808594 109.050781 406.175781 108.765625 406 109.222656 C 392.640625 143.808594 390.898438 182.703125 391.738281 219.429688 C 391.945312 228.460938 393.261719 237.300781 395.015625 246.0625 C 372.484375 235.535156 359.027344 186.996094 361.066406 166.351562 C 364.539062 131.171875 402.371094 90.519531 414.539062 85.816406 C 420.039062 109.097656 434.492188 131.042969 437.617188 154.878906 C 442.472656 191.941406 424.792969 216.929688 401.675781 242.453125 C 400.320312 236.625 399.25 230.789062 398.761719 224.941406 Z M 398.761719 224.941406 " fill-opacity="1" fill-rule="nonzero"/><path fill="#7d9b6e" d="M 488.566406 142 C 488.589844 115.8125 487.84375 89.472656 494.246094 63.847656 C 494.289062 63.675781 494.027344 63.632812 493.960938 63.773438 C 483.15625 86.503906 482.808594 111.832031 481.335938 136.515625 C 480.976562 142.585938 480.601562 148.6875 480.09375 154.777344 C 466.5 144.3125 458.601562 114.40625 459.917969 101.066406 C 462.359375 76.355469 488.933594 47.800781 497.480469 44.5 C 501.339844 60.847656 511.496094 76.265625 513.6875 93.007812 C 517.109375 119.109375 504.609375 136.6875 488.308594 154.667969 C 488.488281 150.457031 488.566406 146.238281 488.566406 142 Z M 488.566406 142 " fill-opacity="1" fill-rule="nonzero"/><path fill="#7d9b6e" d="M 413.128906 501.46875 C 420.757812 499.074219 428.207031 496.085938 435.273438 492.761719 C 451.925781 484.921875 466.675781 473.929688 480.710938 462.125 C 495.523438 449.660156 511.515625 438.265625 524.835938 424.175781 C 525.039062 423.964844 524.738281 423.585938 524.484375 423.722656 C 492.929688 440.878906 467.367188 467.746094 434.5625 482.941406 C 426.007812 486.902344 417.242188 489.871094 408.242188 492.042969 C 420.484375 459.367188 434.5625 431.785156 470.125 419.050781 C 492.757812 410.945312 518.886719 413.78125 542.105469 408.042969 C 543.480469 421.015625 524.585938 473.238281 494.875 492.390625 C 478.691406 502.824219 435.03125 512.347656 413.128906 501.46875 Z M 413.128906 501.46875 " fill-opacity="1" fill-rule="nonzero"/><path fill="#7d9b6e" d="M 470.527344 563.976562 C 447.175781 581.261719 421.882812 595.40625 395.152344 606.710938 C 381.398438 612.527344 366.984375 617.667969 352.335938 620.71875 C 350.542969 621.089844 348.742188 621.386719 346.945312 621.625 C 361.941406 590.367188 378.40625 564.351562 414.761719 554.832031 C 438.019531 548.746094 463.796875 553.867188 487.429688 550.1875 C 487.660156 563.234375 464.257812 613.59375 432.976562 630.066406 C 415.503906 639.269531 369.339844 644.976562 349.207031 630.921875 C 350.746094 630.660156 352.265625 630.378906 353.734375 630.054688 C 368.761719 626.742188 383.578125 621.386719 397.675781 615.273438 C 425.167969 603.347656 449.992188 585.699219 470.84375 564.285156 C 471.027344 564.097656 470.722656 563.832031 470.527344 563.976562 Z M 470.527344 563.976562 " fill-opacity="1" fill-rule="nonzero"/><path fill="#7d9b6e" d="M 501.203125 372.605469 C 483.574219 380.691406 438.488281 383.910156 418.5625 369.691406 C 421.574219 369.460938 424.582031 369.113281 427.5625 368.640625 C 440.863281 366.519531 454.015625 362.648438 466.527344 357.699219 C 493.222656 347.148438 516.519531 329.457031 538.652344 311.535156 C 538.96875 311.277344 538.65625 310.691406 538.277344 310.898438 C 514.582031 323.941406 492.699219 339.738281 467.34375 349.554688 C 455.0625 354.308594 442.269531 357.875 429.25 359.894531 C 424.476562 360.636719 419.652344 361.128906 414.820312 361.195312 C 431.773438 330.035156 449.609375 304.148438 487.121094 296.488281 C 510.675781 291.679688 536.132812 298.199219 559.933594 295.816406 C 559.449219 308.855469 533.332031 357.863281 501.203125 372.605469 Z M 501.203125 372.605469 " fill-opacity="1" fill-rule="nonzero"/><path fill="#7d9b6e" d="M 481.417969 235.789062 C 481.59375 235.773438 481.769531 235.761719 481.945312 235.746094 C 491.152344 234.816406 500.308594 233.269531 509.382812 231.488281 C 518.789062 229.636719 527.964844 226.601562 537.230469 224.128906 C 545.859375 221.828125 554.035156 218.90625 562.476562 216.078125 C 562.722656 215.996094 562.601562 215.605469 562.355469 215.652344 C 553.226562 217.363281 544.1875 218.925781 535.09375 220.910156 C 526.527344 222.78125 517.902344 223.773438 509.292969 225.363281 C 500.453125 226.996094 491.566406 228.308594 482.625 229.253906 C 480.894531 229.433594 479.164062 229.601562 477.433594 229.761719 C 494.367188 210.25 510.734375 194.339844 538.417969 194.886719 C 555.300781 195.222656 571.742188 203.617188 588.417969 205.652344 C 586.078125 214.511719 560.625 244.070312 536.335938 249.21875 C 523.472656 251.945312 493.777344 247.621094 481.417969 235.789062 Z M 481.417969 235.789062 " fill-opacity="1" fill-rule="nonzero"/></svg>