<?xml version="1.0" encoding="utf-8"?>
<!-- Generator: Adobe Illustrator 27.5.0, SVG Export Plug-In . SVG Version: 6.00 Build 0)  -->
<svg version="1.1" id="Capa_1" xmlns="http://www.w3.org/2000/svg" xmlns:xlink="http://www.w3.org/1999/xlink" x="0px" y="0px"
	 viewBox="0 0 2122 2122" style="enable-background:new 0 0 2122 2122;" xml:space="preserve">
<g>
	<path style="fill:#5F774F;" d="M1639.67,1940.49c-47.561-26.382-125.263-53.089-210.706-159.784
		c18.41-23.724,34.606-48.927,48.855-75.206c19.404-35.79,35.189-73.578,47.837-112.444c12.133-37.284,21.415-75.356,28.769-113.856
		c7.266-38.046,16.167-82.516,10.152-121.264c-0.149-0.96-1.452-1.178-1.866-0.275c-15.239,33.253-20.252,73.641-28.172,109.155
		c-8.751,39.251-19.121,78.192-32.297,116.205c-12.406,35.791-27.482,70.661-45.614,103.818
		c-13.425,24.551-28.548,48.146-45.525,70.472c-76.076-104.666-116.088-283.753-151.814-409.217
		c29.37-27.409,54.537-57.589,77.718-89.396c22.938-31.477,43.962-64.524,65.182-98.07c21.11-33.371,41.655-67.127,60.764-101.69
		c18.693-33.811,43.056-74.339,46.925-113.443c0.078-0.785-0.871-1.193-1.387-0.594c-23.899,27.746-39.262,65.62-57.682,97.103
		c-20.901,35.722-43.144,70.575-66.193,104.947c-19.152,28.557-38.218,57.266-58.452,85.026
		c-22.816,31.305-47.165,61.365-74.818,88.628c-24.737-84.661-51.503-168.676-81.705-251.34
		c8.978-17.632,17.224-35.691,24.905-54.051c19.921-47.613,36.311-97.057,52.836-145.467c11.486-33.647,21.586-67.58,29.681-102.212
		c7.798-33.357,18.873-71.865,12.636-106.107c-0.308-1.693-2.604-2.156-3.358-0.496c-13.789,30.363-17.341,65.978-26.368,98.091
		c-10.194,36.266-22.384,72.098-34.801,107.655c-15.488,44.349-30.763,89.555-48.895,133.329
		c-5.557,13.417-11.406,26.684-17.601,39.759c-30.098-79.828-63.588-158.305-101.754-234.787
		c2.562-54.768,19.555-107.022,30.235-160.361c4.598-22.957,8.046-46.111,8.587-69.768c2.199-96.213-2.368-198.109-37.361-288.714
		c-0.465-1.204-2.115-0.452-1.81,0.724c12.889,49.851,17.631,100.944,19.748,152.261c2.044,49.569,5.151,100.675,1.024,150.171
		c-1.276,15.313-4.083,30.598-7.634,45.874c-10.338,44.473-27.038,88.869-31.255,133.643
		c-22.255-42.532-46.036-84.407-71.587-125.505c-22.621-36.386-47.287-73.102-74.174-108.448
		c-2.588-9.183-6.927-18.261-9.774-26.941c-5.525-16.849-9.813-33.811-12.633-51.321c-2.721-16.897-4.576-33.988-6.012-51.118
		c-1.337-15.956-2.314-31.945-3.26-47.846c-3.851-64.66-4.767-131.02-33.07-190.559c-0.175-0.37-0.862-0.263-0.749,0.188
		c16.776,67.135,14.821,136.14,14.877,204.743c0.008,11.098,0.212,22.154,0.682,33.181c0.939,21.966,3.021,43.803,7.309,65.551
		c0.907,4.594,1.892,9.763,3.031,15.216c-33.341-38.542-69.832-74.126-109.895-104.133c-14.269-10.686-28.951-20.723-44.143-29.869
		c-0.698-0.42-1.37-0.491-1.984-0.412c-12.964-8.488-26.059-16.772-39.469-24.544c-18.505-10.725-37.453-20.662-56.594-30.198
		c-9.952-4.957-19.781-9.466-30.235-13.261c-11.397-4.137-25.56-7.094-35.805-13.597c-1.071-0.679-1.928,1.059-0.839,1.422
		c10.384,3.457,20.224,11.406,29.498,17.177c8.717,5.423,17.277,10.54,26.409,15.241c19.049,9.806,37.897,20.006,56.403,30.809
		c18.441,10.766,36.666,22.134,53.798,34.899c9.224,6.872,18.583,13.163,28.055,19.285c2.482,2.484,4.935,4.987,7.41,7.475
		c30.154,30.293,59.81,60.911,87.647,93.656c30.735,36.156,58.982,74.375,85.054,114.019c-4.953-0.018-9.9,0.078-14.591-0.2
		c-7.537-0.447-15.056-1.093-22.569-1.802c-4.533-0.428-9.067-0.86-13.598-1.338c-23.423-2.47-46.708-5.908-69.867-10.186
		c-22.552-4.165-45.146-6.772-67.593-11.671c-23.825-5.2-47.506-9.285-71.422-13.776c-0.642-0.121-0.954,0.902-0.317,1.117
		c22.123,7.413,43.537,15.063,66.146,21.097c24.27,6.479,48.31,14.429,72.954,19.271c23.771,4.67,47.76,8.719,71.872,11.157
		c0.461,0.047,0.927,0.072,1.388,0.117c11.589,1.141,23.224,1.923,34.857,2.392c7.677,0.309,15.761,1.097,23.569,0.546
		c3.234,5.085,6.458,10.177,9.621,15.305c59.436,96.339,106.921,199.472,146.665,305.343c-8.302,1.436-16.781,3.997-24.515,4.558
		c-5.238,0.38-10.482,0.453-15.725,0.383c-12.658-0.169-25.302-1.463-37.804-3.404c-34.111-5.294-67.622-14.632-99.795-27.087
		c-66.432-25.719-123.756-67.105-185.83-101.269c-0.995-0.548-1.818,0.989-0.984,1.665
		c57.978,46.954,119.011,93.297,188.946,120.942c32.784,12.96,67.233,23.109,102.081,28.658c7.81,1.244,15.685,2.157,23.582,2.757
		c9.359,0.71,18.751,0.961,28.125,0.548c8.896-0.392,20.861-0.558,30.811-3.679c0.978,2.693,1.976,5.379,2.944,8.075
		c38.241,106.451,69.993,215.091,101.107,323.826c-9.402,1.133-18.885,3.101-26.709,3.462c-20.226,0.931-40.247-0.444-60.316-2.886
		c-16.624-2.022-32.912-4.952-48.928-8.816c-23.576-5.689-46.54-13.464-68.955-23.845
		c-85.943-39.802-152.911-110.191-235.569-155.136c-0.667-0.362-1.459,0.63-0.929,1.19c34.905,36.905,76.792,66.759,115.606,99.411
		c36.766,30.927,75.411,59.721,119.035,80.258c18.505,8.713,38.024,16.542,58.012,22.816c20.676,6.491,41.854,11.317,62.96,13.657
		c20.603,2.285,41.55,2.79,62.243,1.578c9.259-0.542,21.025-0.669,31.819-2.799c3.661,12.822,7.32,25.645,10.987,38.462
		c24.835,86.801,48.128,175.919,78.767,261.784c-8.973,1.189-17.945,2.582-26.917,3.214c-15.624,1.101-31.083,0.899-46.474-1.123
		c-4.715-0.619-9.424-1.395-14.129-2.375c-38.37-7.99-76.13-21.456-112.169-36.697c-70.024-29.613-136.288-66.662-197.464-111.952
		c-0.508-0.375-1.307,0.322-0.826,0.816c54.623,56.099,119.657,102.333,191.683,133.569c36.927,16.015,75.743,30.046,115.117,38.725
		c3.846,0.848,7.823,1.591,11.863,2.27c28.127,4.72,60.375,5.222,88.989-0.089c12.223,32.266,25.62,63.989,40.713,94.847
		c29.062,59.42,65.381,115.229,111.989,162.394c40.919,41.408,91.149,80.36,148.517,94.554
		C1613.319,2008.506,1651.982,1947.319,1639.67,1940.49z"/>
	<path style="fill:#7D9B6E;" d="M735.703,396.249c-2.475-2.488-4.928-4.991-7.41-7.475c-9.472-6.122-18.831-12.412-28.055-19.285
		c-17.132-12.765-35.357-24.133-53.798-34.899c-18.506-10.803-37.354-21.003-56.403-30.809c-9.132-4.701-17.692-9.818-26.409-15.241
		c-9.274-5.77-19.115-13.72-29.498-17.177c-1.089-0.363-0.232-2.101,0.839-1.422c10.245,6.503,24.408,9.46,35.805,13.597
		c10.454,3.795,20.283,8.304,30.235,13.261c19.141,9.536,38.089,19.473,56.594,30.198c13.411,7.772,26.506,16.056,39.469,24.544
		c0.614-0.079,1.286-0.008,1.984,0.412c15.192,9.146,29.874,19.183,44.143,29.869c-0.541-45.057-54.765-108.477-86.068-125.755
		c-56.951-31.435-158.04-16.497-177.862-2.954c29.551,32.616,47.741,77.424,80.614,107.024
		C612.506,407.52,670.642,405.346,735.703,396.249z"/>
	<path style="fill:#7D9B6E;" d="M1291.892,605.464c-35.265,51.793-91.2,91.937-121.183,147.319
		c-46.492,85.878-26.902,163.379,5.568,247.227c18.132-43.774,33.406-88.979,48.895-133.329
		c12.417-35.557,24.606-71.389,34.801-107.655c9.027-32.113,12.578-67.728,26.368-98.091c0.754-1.66,3.05-1.197,3.358,0.496
		c6.237,34.242-4.838,72.75-12.636,106.107c-8.095,34.632-18.195,68.565-29.681,102.212c-16.525,48.41-32.915,97.853-52.836,145.467
		c63.929-9.551,138.69-111.562,152.68-162.612C1371.704,763.283,1317.258,628.372,1291.892,605.464z"/>
	<path style="fill:#7D9B6E;" d="M1527.615,1136.262c44.428-81.262,22.58-225.096,3.184-253.238
		c-46.264,42.259-109.952,68.413-151.905,115.383c-63.033,70.572-63.88,147.808-52.731,233.571
		c20.234-27.76,39.3-56.469,58.452-85.026c23.05-34.372,45.292-69.225,66.193-104.947c18.421-31.483,33.783-69.357,57.682-97.103
		c0.516-0.6,1.465-0.191,1.387,0.594c-3.869,39.104-28.231,79.632-46.925,113.443c-19.109,34.563-39.655,68.319-60.764,101.69
		c-21.221,33.546-42.245,66.593-65.182,98.07C1401.333,1268.615,1501.619,1183.811,1527.615,1136.262z"/>
	<path style="fill:#7D9B6E;" d="M1565.77,1294.007c-34.198,52.505-89.299,93.785-118.142,149.77
		c-44.005,85.417-24.206,161.419,9,243.062c18.132-33.157,33.208-68.027,45.614-103.818c13.176-38.014,23.546-76.954,32.297-116.205
		c7.92-35.514,12.933-75.902,28.172-109.155c0.414-0.903,1.717-0.684,1.866,0.275c6.015,38.748-2.887,83.218-10.152,121.264
		c-7.353,38.5-16.636,76.572-28.769,113.856c-12.648,38.866-28.432,76.654-47.837,112.444
		c63.481-11.749,135.457-114.476,148.332-165.538C1648.795,1450.16,1591.6,1316.391,1565.77,1294.007z"/>
	<path style="fill:#7D9B6E;" d="M1077.344,589.296c4.127-49.496,1.02-100.602-1.024-150.171
		c-2.117-51.317-6.858-102.409-19.748-152.261c-0.305-1.176,1.345-1.928,1.81-0.724c34.994,90.605,39.56,192.5,37.361,288.714
		c-0.541,23.657-3.989,46.811-8.587,69.768c59.027-27.583,94.281-154.737,88.941-208.817
		c-9.099-92.166-108.211-198.667-140.092-210.983c-14.401,60.982-52.271,118.482-60.453,180.925
		c-12.724,97.095,33.592,162.551,94.157,229.423C1073.262,619.894,1076.068,604.609,1077.344,589.296z"/>
	<path style="fill:#7D9B6E;" d="M842.073,372.006c-0.056-68.603,1.899-137.607-14.877-204.743c-0.113-0.451,0.574-0.558,0.749-0.188
		c28.303,59.539,29.219,125.898,33.07,190.559c0.946,15.901,1.923,31.89,3.26,47.846c35.61-27.413,56.3-105.766,52.85-140.711
		c-6.391-64.737-76.006-139.542-98.401-148.193c-10.115,42.834-36.714,83.221-42.462,127.081
		c-8.961,68.384,23.781,114.426,66.492,161.531C842.285,394.16,842.081,383.104,842.073,372.006z"/>
	<path style="fill:#7D9B6E;" d="M1039.708,1313.725c-19.987-6.275-39.507-14.104-58.012-22.816
		c-43.625-20.537-82.269-49.331-119.035-80.258c-38.815-32.652-80.701-62.506-115.606-99.411c-0.53-0.561,0.262-1.552,0.929-1.19
		c82.658,44.945,149.626,115.334,235.569,155.136c22.415,10.381,45.379,18.156,68.955,23.845
		c-32.07-85.599-68.954-157.859-162.124-191.226c-59.291-21.234-127.737-13.798-188.566-28.833
		c-3.602,33.988,45.892,170.794,123.732,220.975C867.951,1317.28,982.33,1342.221,1039.708,1313.725z"/>
	<path style="fill:#7D9B6E;" d="M889.331,1477.476c61.176,45.29,127.44,82.339,197.464,111.952
		c36.039,15.241,73.799,28.707,112.169,36.697c4.705,0.98,9.414,1.756,14.129,2.375c-39.292-81.882-82.429-150.043-177.669-174.972
		c-60.926-15.948-128.456-2.532-190.369-12.169c-0.604,34.173,60.706,166.106,142.651,209.26
		c45.774,24.106,166.716,39.057,219.462,2.237c-4.04-0.679-8.017-1.421-11.863-2.27c-39.374-8.679-78.19-22.71-115.117-38.725
		c-72.026-31.236-137.06-77.47-191.683-133.569C888.024,1477.798,888.823,1477.101,889.331,1477.476z"/>
	<path style="fill:#7D9B6E;" d="M808.974,976.131c46.178,21.185,164.295,29.62,216.499-7.631c-7.897-0.6-15.772-1.512-23.582-2.757
		c-34.848-5.549-69.296-15.698-102.081-28.658c-69.935-27.645-130.968-73.988-188.946-120.942c-0.834-0.676-0.011-2.213,0.984-1.665
		c62.074,34.164,119.398,75.549,185.83,101.269c32.173,12.455,65.684,21.793,99.795,27.087c12.502,1.941,25.146,3.235,37.804,3.404
		c-44.421-81.632-91.141-149.443-189.413-169.509c-61.705-12.598-128.402,4.482-190.75-1.763
		C656.378,809.122,724.797,937.513,808.974,976.131z"/>
	<path style="fill:#7D9B6E;" d="M860.806,617.711c-0.462-0.045-0.927-0.07-1.388-0.117c-24.112-2.438-48.101-6.487-71.872-11.157
		c-24.643-4.842-48.683-12.792-72.954-19.271c-22.609-6.034-44.023-13.684-66.146-21.097c-0.637-0.215-0.325-1.237,0.317-1.117
		c23.916,4.491,47.598,8.576,71.422,13.776c22.447,4.899,45.041,7.506,67.593,11.671c23.16,4.277,46.444,7.716,69.867,10.186
		c4.531,0.478,9.065,0.91,13.598,1.338c-44.361-51.122-87.237-92.803-159.764-91.363c-44.227,0.879-87.299,22.865-130.987,28.197
		c6.13,23.211,72.807,100.647,136.445,114.134C750.635,660.033,828.43,648.701,860.806,617.711z"/>
</g>
</svg>
